<svg width="512" height="512" viewBox="0 0 512 512" fill="none" xmlns="http://www.w3.org/2000/svg">
<rect width="512" height="512" rx="64" fill="#1B1B1B"/>
<path fill-rule="evenodd" clip-rule="evenodd" d="M100 306.658C100 301.31 100.549 297.546 101.647 295.368C102.029 294.575 102.594 293.884 103.296 293.35C103.999 292.815 104.818 292.453 105.688 292.292C106.328 292.16 106.981 292.095 107.634 292.099C108.561 292.126 109.471 292.351 110.302 292.759C112.765 293.88 115.718 296.433 119.161 300.418C122.271 304.009 125.521 307.478 128.903 310.817C131.051 312.942 133.243 315.022 135.478 317.057C137.282 318.722 139.235 320.221 141.313 321.534C143.676 323.004 146.031 324.053 148.379 324.68C150.078 325.139 151.83 325.373 153.591 325.376C157.683 325.376 161.774 320.343 165.863 310.277C166.388 308.981 166.888 307.675 167.363 306.361C169.075 301.609 170.689 296.824 172.204 292.007C175.352 282.056 178.628 270.549 182.033 257.486C183.087 253.448 184.132 249.409 185.168 245.367C187.775 235.184 189.704 227.357 190.955 221.886C191.289 220.436 191.608 218.982 191.913 217.525C195.063 202.089 197.339 192.628 198.742 189.142C198.761 189.095 198.78 189.048 198.799 189.002C193.41 190.19 184.478 191.627 172.004 193.31C159.529 194.994 151.196 195.836 147.005 195.836C145.44 195.85 143.882 195.644 142.376 195.224C140.276 194.629 138.365 193.51 136.825 191.973C135.428 190.62 134.353 188.975 133.679 187.157C133.175 185.746 132.923 184.259 132.933 182.763C133.002 180.02 134.051 177.391 135.891 175.344C139.402 171.101 146.038 167.142 155.801 163.465C155.813 163.46 155.825 163.456 155.837 163.451C169.727 158.18 184.114 154.299 198.781 151.866C199.734 151.71 200.688 151.561 201.644 151.418C204.958 150.921 208.276 150.45 211.598 150.003C220.863 148.765 227.737 148.102 232.22 148.013C232.557 148.005 232.893 148.001 233.229 148.001C235.135 147.988 237.039 148.115 238.927 148.378C243.567 149.062 246.749 150.675 248.471 153.218C249.525 154.85 250.056 156.76 249.995 158.697C249.995 161.668 246.403 174.048 239.217 195.836C237.764 200.237 236.326 204.643 234.903 209.054C231.336 220.116 228.769 228.486 227.203 234.163C226.79 235.641 226.404 237.127 226.044 238.619C215.266 283.978 207.182 313.293 201.793 326.564C193.41 347.362 182.632 359.444 169.459 362.812C166.265 363.604 163.072 364 159.878 364C151.459 363.93 143.217 361.595 136.029 357.244C130.34 353.93 124.768 349.398 119.311 343.648C116.037 340.231 112.991 336.606 110.194 332.795C103.398 323.43 100 314.717 100 306.658Z" fill="white" fill-opacity="0.9" stroke="black" stroke-width="0.944882" stroke-linecap="round"/>
<path fill-rule="evenodd" clip-rule="evenodd" d="M262 306.658C262 301.31 262.549 297.546 263.647 295.368C264.029 294.575 264.594 293.884 265.296 293.35C265.999 292.815 266.818 292.453 267.688 292.292C268.328 292.16 268.981 292.095 269.634 292.099C270.561 292.126 271.471 292.351 272.302 292.759C274.765 293.88 277.718 296.433 281.161 300.418C284.271 304.009 287.521 307.478 290.903 310.817C293.051 312.942 295.243 315.022 297.478 317.057C299.282 318.722 301.235 320.221 303.313 321.534C305.676 323.004 308.031 324.053 310.379 324.68C312.078 325.139 313.83 325.373 315.591 325.376C319.683 325.376 323.774 320.343 327.863 310.277C328.388 308.981 328.888 307.675 329.363 306.361C331.075 301.609 332.689 296.824 334.204 292.007C337.352 282.056 340.628 270.549 344.033 257.486C345.087 253.448 346.132 249.409 347.168 245.367C349.775 235.184 351.704 227.357 352.955 221.886C353.289 220.436 353.608 218.982 353.913 217.525C357.063 202.089 359.339 192.628 360.742 189.142C360.761 189.095 360.78 189.048 360.799 189.002C355.41 190.19 346.478 191.627 334.004 193.31C321.529 194.994 313.196 195.836 309.005 195.836C307.44 195.85 305.882 195.644 304.376 195.224C302.276 194.629 300.365 193.51 298.825 191.973C297.428 190.62 296.353 188.975 295.679 187.157C295.175 185.746 294.923 184.259 294.933 182.763C295.002 180.02 296.051 177.391 297.891 175.344C301.402 171.101 308.038 167.142 317.801 163.465C317.813 163.46 317.825 163.456 317.837 163.451C331.727 158.18 346.114 154.299 360.781 151.866C361.734 151.71 362.688 151.561 363.644 151.418C366.958 150.921 370.276 150.45 373.598 150.003C382.863 148.765 389.737 148.102 394.22 148.013C394.557 148.005 394.893 148.001 395.229 148.001C397.135 147.988 399.039 148.115 400.927 148.378C405.567 149.062 408.749 150.675 410.471 153.218C411.525 154.85 412.056 156.76 411.995 158.697C411.995 161.668 408.403 174.048 401.217 195.836C399.764 200.237 398.326 204.643 396.903 209.054C393.336 220.116 390.769 228.486 389.203 234.163C388.79 235.641 388.404 237.127 388.044 238.619C377.266 283.978 369.182 313.293 363.793 326.564C355.41 347.362 344.632 359.444 331.459 362.812C328.265 363.604 325.072 364 321.878 364C313.459 363.93 305.217 361.595 298.029 357.244C292.34 353.93 286.768 349.398 281.311 343.648C278.037 340.231 274.991 336.606 272.194 332.795C265.398 323.43 262 314.717 262 306.658Z" fill="white" fill-opacity="0.9" stroke="black" stroke-width="0.944882" stroke-linecap="round"/>
</svg>
