<svg width="512" height="512" viewBox="0 0 512 512" fill="none" xmlns="http://www.w3.org/2000/svg">
<rect width="512" height="512" rx="64" fill="#0D1117"/>
<path fill-rule="evenodd" clip-rule="evenodd" d="M76 314.067C76 307.896 76.6333 303.553 77.9 301.039C78.3409 300.125 78.9931 299.328 79.8035 298.711C80.6139 298.094 81.5596 297.676 82.5636 297.491C83.302 297.338 84.0547 297.263 84.809 297.268C85.8782 297.3 86.928 297.559 87.887 298.029C90.7289 299.323 94.1362 302.269 98.1089 306.867C101.698 311.01 105.447 315.013 109.35 318.866C111.828 321.318 114.357 323.718 116.936 326.065C119.018 327.987 121.271 329.716 123.669 331.232C126.396 332.927 129.113 334.138 131.822 334.862C133.782 335.391 135.804 335.661 137.836 335.664C142.557 335.664 147.277 329.857 151.996 318.242C152.602 316.747 153.179 315.241 153.727 313.724C155.701 308.241 157.564 302.72 159.313 297.162C162.945 285.68 166.725 272.403 170.654 257.33C171.87 252.671 173.075 248.01 174.271 243.346C177.278 231.597 179.504 222.566 180.948 216.253C181.334 214.579 181.702 212.902 182.054 211.221C185.688 193.41 188.315 182.494 189.934 178.471C189.955 178.417 189.977 178.364 189.999 178.31C183.781 179.681 173.475 181.338 159.081 183.281C144.687 185.224 135.072 186.195 130.236 186.195C128.431 186.212 126.633 185.974 124.895 185.489C122.472 184.803 120.267 183.512 118.491 181.738C116.879 180.177 115.638 178.279 114.86 176.181C114.279 174.553 113.988 172.838 114 171.111C114.08 167.946 115.289 164.913 117.413 162.551C121.464 157.655 129.121 153.087 140.385 148.845C140.399 148.839 140.413 148.833 140.427 148.828C156.454 142.746 173.054 138.268 189.978 135.461C191.078 135.281 192.179 135.108 193.281 134.943C197.106 134.37 200.934 133.827 204.767 133.312C215.458 131.883 223.389 131.118 228.562 131.015C228.95 131.006 229.338 131.002 229.726 131.001C231.925 130.987 234.122 131.132 236.3 131.436C241.655 132.225 245.326 134.086 247.313 137.021C248.529 138.904 249.142 141.107 249.071 143.342C249.071 146.771 244.926 161.055 236.635 186.195C234.959 191.273 233.3 196.358 231.657 201.447C227.542 214.211 224.58 223.868 222.772 230.419C222.296 232.125 221.85 233.839 221.435 235.561C208.999 287.898 199.672 321.723 193.454 337.036C183.781 361.033 171.345 374.974 156.145 378.859C152.46 379.774 148.775 380.231 145.09 380.231C135.376 380.15 125.865 377.455 117.572 372.435C111.008 368.611 104.578 363.382 98.2817 356.748C94.5039 352.805 90.9901 348.622 87.7626 344.224C79.9209 333.419 76 323.366 76 314.067Z" fill="white" fill-opacity="0.9" stroke="black" stroke-width="0.944882" stroke-linecap="round"/>
<path fill-rule="evenodd" clip-rule="evenodd" d="M262.923 314.067C262.923 307.896 263.556 303.553 264.823 301.039C265.264 300.125 265.916 299.328 266.727 298.711C267.537 298.094 268.483 297.676 269.487 297.491C270.225 297.338 270.978 297.263 271.732 297.268C272.801 297.3 273.851 297.559 274.81 298.029C277.652 299.323 281.059 302.269 285.032 306.867C288.621 311.01 292.371 315.013 296.273 318.866C298.751 321.318 301.281 323.718 303.859 326.065C305.941 327.987 308.194 329.716 310.592 331.232C313.319 332.927 316.036 334.138 318.745 334.862C320.705 335.391 322.727 335.661 324.759 335.664C329.48 335.664 334.2 329.857 338.919 318.242C339.525 316.747 340.102 315.241 340.65 313.724C342.625 308.241 344.487 302.72 346.236 297.162C349.868 285.68 353.648 272.403 357.577 257.33C358.793 252.671 359.998 248.01 361.194 243.346C364.202 231.597 366.428 222.566 367.871 216.253C368.257 214.579 368.625 212.902 368.977 211.221C372.611 193.41 375.238 182.494 376.857 178.471C376.878 178.417 376.9 178.364 376.922 178.31C370.704 179.681 360.398 181.338 346.004 183.281C331.611 185.224 321.995 186.195 317.159 186.195C315.354 186.212 313.556 185.974 311.818 185.489C309.395 184.803 307.19 183.512 305.414 181.738C303.802 180.177 302.561 178.279 301.783 176.181C301.202 174.553 300.911 172.838 300.923 171.111C301.003 167.946 302.212 164.913 304.336 162.551C308.387 157.655 316.044 153.087 327.309 148.845C327.322 148.839 327.336 148.833 327.35 148.828C343.378 142.746 359.977 138.268 376.902 135.461C378.001 135.281 379.102 135.108 380.204 134.943C384.029 134.37 387.858 133.827 391.69 133.312C402.381 131.883 410.313 131.118 415.485 131.015C415.873 131.006 416.261 131.002 416.649 131.001C418.848 130.987 421.046 131.132 423.223 131.436C428.578 132.225 432.249 134.086 434.236 137.021C435.452 138.904 436.065 141.107 435.995 143.342C435.995 146.771 431.849 161.055 423.558 186.195C421.882 191.273 420.223 196.358 418.58 201.447C414.465 214.211 411.503 223.868 409.695 230.419C409.219 232.125 408.773 233.839 408.358 235.561C395.922 287.898 386.595 321.723 380.377 337.036C370.704 361.033 358.268 374.974 343.068 378.859C339.383 379.774 335.698 380.231 332.014 380.231C322.299 380.15 312.789 377.455 304.495 372.435C297.931 368.611 291.501 363.382 285.205 356.748C281.427 352.805 277.913 348.622 274.686 344.224C266.844 333.419 262.923 323.366 262.923 314.067Z" fill="white" fill-opacity="0.9" stroke="black" stroke-width="0.944882" stroke-linecap="round"/>
</svg>
